<?xml version="1.0"?>
<svg xmlns="http://www.w3.org/2000/svg" viewBox="0 0 50 50">
    <path style="text-indent:0;text-align:start;line-height:normal;text-transform:none;block-progression:tb;-inkscape-font-specification:Sans" d="M 25 1 C 24.49438 1 23.976493 1.2279292 23.65625 1.5625 C 23.383927 1.8470065 23.269414 2.1625647 23.15625 2.46875 L 23.125 2.4375 C 23.125 2.4375 23.024021 2.6153336 22.84375 2.8125 C 22.67144 3.0009587 22.500894 3.1386201 22.4375 3.15625 C 22.4346 3.1570646 22.40851 3.155902 22.40625 3.15625 A 1.0001 1.0001 0 0 0 22.1875 3.21875 C 21.218405 3.3438179 20.264615 3.5351861 19.34375 3.78125 C 19.31456 3.78905 19.27914 3.77334 19.25 3.78125 A 1.0001 1.0001 0 0 0 19.15625 3.8125 A 1.0001 1.0001 0 0 0 19.03125 3.8125 C 19.030483 3.8127299 18.785845 3.80312 18.53125 3.6875 C 18.276655 3.5718797 18.09375 3.4375 18.09375 3.4375 L 18.0625 3.46875 C 17.846435 3.2396532 17.627217 2.995918 17.28125 2.84375 C 16.857544 2.6573896 16.279755 2.6506304 15.8125 2.84375 C 15.346117 3.0374495 14.949174 3.4436251 14.78125 3.875 C 14.643521 4.2288056 14.646818 4.5592143 14.65625 4.875 C 14.65654 4.88471 14.655894 4.896572 14.65625 4.90625 C 14.65295 4.929095 14.61621 5.1089769 14.53125 5.34375 C 14.44065 5.5941054 14.264339 5.7844934 14.21875 5.8125 L 14.25 5.84375 C 13.325134 6.3640135 12.454852 6.9540358 11.625 7.59375 C 11.5999 7.613095 11.55626 7.60556 11.53125 7.625 A 1.0001 1.0001 0 0 0 11.40625 7.71875 A 1.0001 1.0001 0 0 0 11.375 7.71875 C 11.374296 7.719323 11.154653 7.8218808 10.875 7.8125 C 10.595347 7.8031192 10.375 7.75 10.375 7.75 C 10.082506 7.6161904 9.7933197 7.50841 9.40625 7.5 C 8.9428389 7.4899313 8.3887227 7.6737773 8.03125 8.03125 C 7.6734672 8.3890328 7.4584443 8.9432478 7.46875 9.40625 C 7.4773681 9.7934317 7.6167525 10.082685 7.75 10.375 C 7.75 10.375 7.800481 10.576974 7.8125 10.84375 C 7.824519 11.110526 7.749462 11.364265 7.71875 11.40625 A 1.0001 1.0001 0 0 0 7.5625 11.6875 C 6.9396606 12.501543 6.3210206 13.345077 5.8125 14.25 C 5.798533 14.27185 5.5964909 14.438102 5.34375 14.53125 C 5.0910091 14.6244 4.875 14.65625 4.875 14.65625 L 4.875 14.6875 C 4.5591867 14.6781 4.2289228 14.67481 3.875 14.8125 C 3.4434821 14.980382 3.036969 15.376254 2.84375 15.84375 C 2.6494858 16.311493 2.6570582 16.888612 2.84375 17.3125 C 3.0031211 17.674356 3.2282639 17.902896 3.46875 18.125 C 3.46875 18.125 3.5750535 18.260277 3.6875 18.5 C 3.794147 18.727359 3.8508956 18.959864 3.84375 19.03125 C 3.8433614 19.03515 3.8443938 19.05969 3.84375 19.0625 C 3.5352745 20.158785 3.2922135 21.271278 3.15625 22.4375 C 3.15504 22.44788 3.15744 22.45837 3.15625 22.46875 C 3.141486 22.50837 3.0332649 22.699756 2.84375 22.875 C 2.6448265 23.058944 2.4375 23.15625 2.4375 23.15625 L 2.4375 23.1875 C 2.1515367 23.298487 1.8590688 23.402293 1.59375 23.65625 C 1.2591792 23.976493 1.03125 24.52563 1.03125 25.03125 C 1.03125 25.53687 1.2591792 26.054757 1.59375 26.375 C 1.8707579 26.640145 2.170428 26.762675 2.46875 26.875 C 2.46875 26.875 2.6192226 26.98083 2.8125 27.15625 C 3.0057774 27.33167 3.1443816 27.564174 3.15625 27.625 C 3.1564938 27.627 3.187256 27.623 3.1875 27.625 C 3.3245531 28.763785 3.5433775 29.898305 3.84375 30.96875 C 3.84645 30.97835 3.84104 30.99038 3.84375 31 C 3.8431781 31.03343 3.827231 31.262346 3.71875 31.5 C 3.6038651 31.751682 3.46875 31.9375 3.46875 31.9375 C 3.2397402 32.151086 3.0267707 32.373687 2.875 32.71875 C 2.6886396 33.142456 2.6506304 33.720245 2.84375 34.1875 C 3.0374495 34.653883 3.4748751 35.050826 3.90625 35.21875 C 4.269204 35.36004 4.5832722 35.355293 4.90625 35.34375 L 4.90625 35.375 C 4.90625 35.375 5.0986935 35.381 5.34375 35.46875 C 5.5530117 35.54365 5.7080267 35.650033 5.78125 35.71875 C 5.793775 35.7305 5.838448 35.7734 5.84375 35.78125 C 6.3472058 36.672422 6.9472255 37.508675 7.5625 38.3125 A 1.0001 1.0001 0 0 0 7.625 38.40625 C 7.639014 38.42438 7.642186 38.45067 7.65625 38.46875 A 1.0001 1.0001 0 0 0 7.75 38.625 C 7.750573 38.625704 7.821881 38.876597 7.8125 39.15625 C 7.80312 39.435903 7.75 39.65625 7.75 39.65625 L 7.78125 39.65625 C 7.6524974 39.942992 7.5084092 40.247202 7.5 40.625 C 7.489694 41.088002 7.7047172 41.610967 8.0625 41.96875 C 8.4202828 42.326533 8.9432478 42.541556 9.40625 42.53125 C 9.7948839 42.52255 10.113076 42.415191 10.40625 42.28125 C 10.40625 42.28125 10.608224 42.23077 10.875 42.21875 C 11.141776 42.20673 11.395515 42.28179 11.4375 42.3125 A 1.0001 1.0001 0 0 0 11.59375 42.40625 C 12.44118 43.061438 13.335351 43.658072 14.28125 44.1875 C 14.28365 44.1888 14.464762 44.395349 14.5625 44.65625 C 14.66024 44.917151 14.6875 45.125 14.6875 45.125 L 14.71875 45.125 C 14.70723 45.447907 14.6713 45.762052 14.8125 46.125 C 14.980382 46.556518 15.376254 46.994281 15.84375 47.1875 C 16.311493 47.381764 16.888612 47.342942 17.3125 47.15625 C 17.658616 47.003811 17.877908 46.760235 18.09375 46.53125 L 18.125 46.5625 C 18.125 46.5625 18.289276 46.425735 18.53125 46.3125 C 18.773224 46.199265 19.042742 46.175086 19.09375 46.1875 A 1.0001 1.0001 0 0 0 19.28125 46.21875 C 19.31038 46.22655 19.34582 46.21105 19.375 46.21875 C 20.275975 46.457737 21.208172 46.657458 22.15625 46.78125 C 22.16649 46.78255 22.17726 46.77995 22.1875 46.78125 A 1.0001 1.0001 0 0 0 22.25 46.8125 A 1.0001 1.0001 0 0 0 22.4375 46.84375 C 22.43796 46.843797 22.684064 46.95196 22.875 47.15625 C 23.065936 47.36054 23.1875 47.5625 23.1875 47.5625 C 23.299825 47.860822 23.422355 48.160492 23.6875 48.4375 C 24.007743 48.772071 24.52563 49 25.03125 49 C 25.53687 49 26.054757 48.772071 26.375 48.4375 C 26.647906 48.152384 26.793019 47.838072 26.90625 47.53125 C 26.90625 47.53125 27.007229 47.384666 27.1875 47.1875 C 27.367771 46.990334 27.60509 46.85163 27.65625 46.84375 C 27.68931 46.83975 27.717 46.81664 27.75 46.8125 A 1.0001 1.0001 0 0 0 27.84375 46.78125 C 28.817577 46.654475 29.762772 46.467334 30.6875 46.21875 A 1.0001 1.0001 0 0 0 30.90625 46.1875 C 30.93741 46.1788 30.9689 46.16506 31 46.15625 C 31.000767 46.15602 31.276655 46.19688 31.53125 46.3125 C 31.785845 46.42812 31.96875 46.5625 31.96875 46.5625 C 32.182149 46.786715 32.410649 47.006992 32.75 47.15625 C 33.173706 47.34261 33.751495 47.34937 34.21875 47.15625 C 34.685133 46.96255 35.082076 46.556375 35.25 46.125 C 35.391965 45.760312 35.386942 45.418085 35.375 45.09375 C 35.375 45.09375 35.37475 45.06422 35.375 45.0625 C 35.3785 45.03824 35.41494 44.890697 35.5 44.65625 C 35.59108 44.405226 35.76821 44.214378 35.8125 44.1875 A 1.0001 1.0001 0 0 0 35.875 44.125 A 1.0001 1.0001 0 0 0 36 44.03125 C 36.810213 43.561405 37.574428 43.002288 38.3125 42.4375 C 38.33751 42.41837 38.38133 42.42549 38.40625 42.40625 A 1.0001 1.0001 0 0 0 38.65625 42.28125 C 38.656954 42.280677 38.907847 42.178119 39.1875 42.1875 C 39.467153 42.1969 39.6875 42.25 39.6875 42.25 C 39.974244 42.378517 40.279274 42.491814 40.65625 42.5 C 41.118929 42.51005 41.642245 42.325563 42 41.96875 C 42.358695 41.610999 42.5728 41.056744 42.5625 40.59375 C 42.5536 40.195078 42.42002 39.893022 42.28125 39.59375 L 42.3125 39.59375 C 42.3125 39.59375 42.23077 39.423026 42.21875 39.15625 C 42.20673 38.889474 42.28179 38.635735 42.3125 38.59375 A 1.0001 1.0001 0 0 0 42.46875 38.3125 A 1.0001 1.0001 0 0 0 42.5 38.21875 C 43.039608 37.506922 43.578465 36.780616 44.03125 36 C 44.05017 35.96737 44.07499 35.939 44.09375 35.90625 A 1.0001 1.0001 0 0 0 44.15625 35.84375 C 44.17488 35.81091 44.20029 35.78297 44.21875 35.75 C 44.218785 35.749935 44.425435 35.56708 44.6875 35.46875 C 44.949565 35.37042 45.15625 35.34375 45.15625 35.34375 L 45.15625 35.3125 C 45.472063 35.3219 45.802327 35.32519 46.15625 35.1875 C 46.587768 35.019618 46.994281 34.623746 47.1875 34.15625 C 47.381764 33.688507 47.374192 33.111388 47.1875 32.6875 C 47.028129 32.325644 46.802986 32.097104 46.5625 31.875 C 46.5625 31.875 46.456985 31.710724 46.34375 31.46875 C 46.230515 31.226776 46.206336 30.988508 46.21875 30.9375 A 1.0001 1.0001 0 0 0 46.21875 30.71875 C 46.22135 30.70905 46.21615 30.69719 46.21875 30.6875 A 1.0001 1.0001 0 0 0 46.21875 30.625 C 46.449115 29.757824 46.626008 28.848029 46.75 27.9375 A 1.0001 1.0001 0 0 0 46.78125 27.90625 A 1.0001 1.0001 0 0 0 46.875 27.5625 C 46.875047 27.56204 46.98321 27.347186 47.1875 27.15625 C 47.39179 26.965314 47.59375 26.84375 47.59375 26.84375 L 47.59375 26.8125 C 47.879713 26.701513 48.172181 26.597707 48.4375 26.34375 C 48.772071 26.023507 49.03125 25.47437 49.03125 24.96875 C 49.03125 24.463751 48.772302 23.944939 48.4375 23.625 C 48.160301 23.360107 47.860238 23.236927 47.5625 23.125 C 47.5625 23.125 47.384666 23.024021 47.1875 22.84375 C 46.990334 22.663479 46.88288 22.42616 46.875 22.375 A 1.0001 1.0001 0 0 0 46.8125 22.1875 A 1.0001 1.0001 0 0 0 46.78125 22.09375 C 46.658265 21.172165 46.451119 20.284442 46.21875 19.40625 A 1.0001 1.0001 0 0 0 46.21875 19.3125 C 46.21085 19.28315 46.22675 19.24806 46.21875 19.21875 A 1.0001 1.0001 0 0 0 46.1875 19.03125 C 46.18727 19.030483 46.1969 18.754595 46.3125 18.5 C 46.42812 18.245405 46.5625 18.0625 46.5625 18.0625 C 46.797874 17.843019 47.031573 17.604513 47.1875 17.25 C 47.37386 16.826294 47.38062 16.279755 47.1875 15.8125 A 1.0001 1.0001 0 0 0 47.1875 15.78125 C 46.9938 15.314867 46.556375 14.949174 46.125 14.78125 C 45.762046 14.63996 45.447978 14.644707 45.125 14.65625 L 45.125 14.625 C 45.125 14.625 44.938524 14.59108 44.6875 14.5 C 44.436476 14.40892 44.214378 14.26304 44.1875 14.21875 A 1.0001 1.0001 0 0 0 44.0625 14.0625 A 1.0001 1.0001 0 0 0 43.9375 13.90625 C 43.499916 13.162514 43.01688 12.462415 42.5 11.78125 A 1.0001 1.0001 0 0 0 42.46875 11.71875 C 42.46345 11.71185 42.47405 11.69438 42.46875 11.6875 A 1.0001 1.0001 0 0 0 42.28125 11.375 C 42.280677 11.374296 42.20937 11.123403 42.21875 10.84375 C 42.22815 10.564097 42.28125 10.34375 42.28125 10.34375 L 42.25 10.34375 C 42.378786 10.056672 42.523052 9.7525343 42.53125 9.375 C 42.541297 8.9123209 42.325563 8.3890049 41.96875 8.03125 C 41.610999 7.6725553 41.087994 7.4584501 40.625 7.46875 C 40.236373 7.4774 39.918345 7.5847669 39.625 7.71875 C 39.625 7.71875 39.423026 7.769231 39.15625 7.78125 C 38.889474 7.793269 38.635735 7.718212 38.59375 7.6875 A 1.0001 1.0001 0 0 0 38.53125 7.65625 C 38.50179 7.633245 38.46708 7.616618 38.4375 7.59375 A 1.0001 1.0001 0 0 0 38.34375 7.5625 C 37.608541 6.9989884 36.838766 6.4703389 36.03125 6 A 1.0001 1.0001 0 0 0 35.875 5.875 A 1.0001 1.0001 0 0 0 35.75 5.8125 C 35.749935 5.8124651 35.59833 5.6058146 35.5 5.34375 C 35.40167 5.0816854 35.34375 4.84375 35.34375 4.84375 C 35.35275 4.5295236 35.35566 4.2269118 35.21875 3.875 C 35.050868 3.4434821 34.654996 3.005719 34.1875 2.8125 C 33.719757 2.6182358 33.142638 2.6570582 32.71875 2.84375 C 32.372634 2.9961887 32.153342 3.2397652 31.9375 3.46875 L 31.90625 3.4375 C 31.90625 3.4375 31.741974 3.5742653 31.5 3.6875 C 31.258026 3.8007347 30.988508 3.824914 30.9375 3.8125 A 1.0001 1.0001 0 0 0 30.75 3.78125 C 30.72071 3.7733 30.68559 3.78909 30.65625 3.78125 C 29.740424 3.536504 28.806147 3.3440145 27.84375 3.21875 A 1.0001 1.0001 0 0 0 27.59375 3.15625 C 27.592426 3.1561142 27.347268 3.0480391 27.15625 2.84375 C 26.965232 2.6394609 26.84375 2.4375 26.84375 2.4375 C 26.731425 2.139178 26.608895 1.8395079 26.34375 1.5625 C 26.023507 1.2279292 25.50562 1 25 1 z M 25 3.125 C 25.02558 3.176168 25.03214 3.15892 25.0625 3.25 A 1.0001 1.0001 0 0 0 25.15625 3.46875 C 25.15625 3.46875 25.370018 3.8145391 25.71875 4.1875 C 25.904225 4.385861 26.324785 4.5029803 26.625 4.6875 C 26.64975 4.702713 26.6618 4.735447 26.6875 4.75 A 1.0001 1.0001 0 0 0 27.34375 5.15625 C 27.36412 5.15864 27.3859 5.15379 27.40625 5.15625 C 28.443931 5.2815814 29.480679 5.5012185 30.46875 5.78125 A 1.0001 1.0001 0 0 0 31.28125 5.625 C 31.2919 5.62339 31.30194 5.62674 31.3125 5.625 C 31.666586 5.5668205 32.095256 5.616286 32.34375 5.5 C 32.796276 5.2882347 33.125 5.03125 33.125 5.03125 A 1.0001 1.0001 0 0 0 33.28125 4.90625 C 33.33548 4.843701 33.33474 4.848732 33.375 4.8125 C 33.3776 4.86569 33.3806 4.85791 33.375 4.9375 A 1.0001 1.0001 0 0 0 33.375 5.15625 C 33.375 5.15625 33.44558 5.5530646 33.625 6.03125 C 33.71763 6.2781156 34.053888 6.5345881 34.25 6.8125 C 34.2548 6.81936 34.2451 6.836906 34.25 6.84375 A 1.0001 1.0001 0 0 0 34.28125 6.90625 A 1.0001 1.0001 0 0 0 34.78125 7.5625 C 34.78885 7.56678 34.80489 7.55821 34.8125 7.5625 C 35.728673 8.0782671 36.583266 8.6609315 37.40625 9.3125 A 1.0001 1.0001 0 0 0 37.4375 9.3125 A 1.0001 1.0001 0 0 0 38.21875 9.5 C 38.583423 9.59174 38.96513 9.7940845 39.25 9.78125 C 39.748974 9.758769 40.15625 9.65625 40.15625 9.65625 A 1.0001 1.0001 0 0 0 40.34375 9.59375 C 40.40165 9.564799 40.39322 9.579465 40.4375 9.5625 C 40.42059 9.606662 40.4352 9.598414 40.40625 9.65625 A 1.0001 1.0001 0 0 0 40.34375 9.84375 C 40.34375 9.84375 40.235869 10.270903 40.21875 10.78125 C 40.20975 11.049555 40.420976 11.411569 40.5 11.75 A 1.0001 1.0001 0 0 0 40.6875 12.59375 C 41.347858 13.428037 41.94954 14.321687 42.46875 15.25 A 1.0001 1.0001 0 0 0 43.15625 15.75 C 43.449375 15.961858 43.740424 16.280822 44 16.375 C 44.469726 16.545424 44.875 16.625 44.875 16.625 A 1.0001 1.0001 0 0 0 45.0625 16.625 C 45.162828 16.6179 45.1611 16.6205 45.21875 16.625 C 45.182 16.66645 45.19131 16.66126 45.125 16.71875 A 1.0001 1.0001 0 0 0 44.96875 16.875 C 44.96875 16.875 44.71113 17.222595 44.5 17.6875 C 44.392531 17.924145 44.43365 18.327025 44.375 18.65625 A 1.0001 1.0001 0 0 0 44.375 18.6875 A 1.0001 1.0001 0 0 0 44.21875 19.53125 C 44.50719 20.548429 44.719327 21.617086 44.84375 22.6875 A 1.0001 1.0001 0 0 0 45.25 23.34375 A 1.0001 1.0001 0 0 0 45.3125 23.40625 C 45.502767 23.716326 45.638954 24.125253 45.84375 24.3125 C 46.212584 24.649729 46.5625 24.84375 46.5625 24.84375 A 1.0001 1.0001 0 0 0 46.75 24.9375 C 46.81176 24.95809 46.80034 24.94942 46.84375 24.96875 C 46.7983 24.98949 46.81716 25.00886 46.75 25.03125 A 1.0001 1.0001 0 0 0 46.5625 25.125 C 46.5625 25.125 46.18571 25.338686 45.8125 25.6875 C 45.61768 25.869585 45.495274 26.27011 45.3125 26.5625 A 1.0001 1.0001 0 0 0 44.84375 27.3125 C 44.720423 28.380702 44.506589 29.419066 44.21875 30.4375 A 1.0001 1.0001 0 0 0 44.375 31.3125 C 44.43405 31.661298 44.41633 32.066926 44.53125 32.3125 C 44.743015 32.765026 45 33.09375 45 33.09375 A 1.0001 1.0001 0 0 0 45.125 33.25 C 45.19142 33.30759 45.18189 33.3022 45.21875 33.34375 C 45.16535 33.34645 45.174 33.34945 45.09375 33.34375 A 1.0001 1.0001 0 0 0 44.875 33.34375 C 44.875 33.34375 44.446935 33.41433 43.96875 33.59375 C 43.701589 33.693992 43.423053 34.024032 43.125 34.25 A 1.0001 1.0001 0 0 0 42.46875 34.75 C 42.46455 34.7576 42.47295 34.77369 42.46875 34.78125 C 41.953623 35.700926 41.341722 36.547267 40.6875 37.375 A 1.0001 1.0001 0 0 0 40.5 38.21875 A 1.0001 1.0001 0 0 0 40.5 38.25 C 40.42147 38.594162 40.237819 38.979644 40.25 39.25 C 40.27248 39.748974 40.375 40.125 40.375 40.125 A 1.0001 1.0001 0 0 0 40.4375 40.3125 C 40.46645 40.3704 40.45179 40.36197 40.46875 40.40625 C 40.42459 40.38934 40.43284 40.40395 40.375 40.375 A 1.0001 1.0001 0 0 0 40.15625 40.3125 C 40.15625 40.3125 39.760347 40.204619 39.25 40.1875 C 38.977963 40.1784 38.593607 40.386404 38.25 40.46875 C 38.2401 40.47115 38.22872 40.46625 38.21875 40.46875 A 1.0001 1.0001 0 0 0 37.40625 40.65625 C 36.57737 41.314394 35.707321 41.917417 34.78125 42.4375 A 1.0001 1.0001 0 0 0 34.28125 43.125 C 34.061225 43.423732 33.721186 43.703642 33.625 43.96875 C 33.454576 44.438476 33.40625 44.84375 33.40625 44.84375 A 1.0001 1.0001 0 0 0 33.40625 45.0625 C 33.41045 45.1222 33.407151 45.11125 33.40625 45.15625 C 33.36861 45.12155 33.36105 45.14975 33.3125 45.09375 A 1.0001 1.0001 0 0 0 33.15625 44.9375 C 33.15625 44.9375 32.808655 44.67988 32.34375 44.46875 C 32.077015 44.347616 31.63327 44.39151 31.25 44.34375 A 1.0001 1.0001 0 0 0 30.46875 44.21875 C 29.460742 44.504432 28.434444 44.719389 27.375 44.84375 A 1.0001 1.0001 0 0 0 26.65625 45.28125 A 1.0001 1.0001 0 0 0 26.625 45.3125 C 26.317901 45.502111 25.904768 45.609048 25.71875 45.8125 C 25.381521 46.181334 25.15625 46.5625 25.15625 46.5625 A 1.0001 1.0001 0 0 0 25.09375 46.71875 C 25.07136 46.78591 25.05199 46.76705 25.03125 46.8125 C 25.01194 46.7692 25.02051 46.78027 25 46.71875 A 1.0001 1.0001 0 0 0 24.90625 46.53125 C 24.90625 46.53125 24.692564 46.18571 24.34375 45.8125 C 24.142937 45.597642 23.712765 45.441084 23.375 45.25 C 23.36214 45.2427 23.35686 45.22584 23.34375 45.21875 A 1.0001 1.0001 0 0 0 22.75 44.875 A 1.0001 1.0001 0 0 0 22.6875 44.84375 C 22.67728 44.84255 22.66647 44.84495 22.65625 44.84375 C 21.613753 44.720838 20.587875 44.498052 19.59375 44.21875 A 1.0001 1.0001 0 0 0 18.8125 44.34375 C 18.80167 44.34505 18.79199 44.34225 18.78125 44.34375 A 1.0001 1.0001 0 0 0 18.71875 44.375 C 18.364664 44.43318 17.935994 44.3837 17.6875 44.5 C 17.234974 44.711765 16.90625 44.96875 16.90625 44.96875 A 1.0001 1.0001 0 0 0 16.75 45.09375 C 16.69577 45.1563 16.6965 45.15127 16.65625 45.1875 C 16.65365 45.13431 16.65065 45.14209 16.65625 45.0625 A 1.0001 1.0001 0 0 0 16.65625 44.84375 C 16.65625 44.84375 16.61576 44.444599 16.4375 43.96875 C 16.259238 43.492901 15.97556 42.835163 15.25 42.4375 C 14.33601 41.925931 13.447683 41.336282 12.625 40.6875 C 12.60178 40.67052 12.58581 40.67209 12.5625 40.65625 A 1.0001 1.0001 0 0 0 11.875 40.5 C 11.494317 40.397017 11.077457 40.205405 10.78125 40.21875 C 10.282276 40.24123 9.875 40.34375 9.875 40.34375 A 1.0001 1.0001 0 0 0 9.6875 40.40625 C 9.629533 40.43523 9.63802 40.42053 9.59375 40.4375 C 9.610718 40.39323 9.59602 40.40172 9.625 40.34375 A 1.0001 1.0001 0 0 0 9.6875 40.15625 C 9.6875 40.15625 9.7953808 39.729097 9.8125 39.21875 C 9.822381 38.924183 9.6043174 38.53105 9.5 38.15625 A 1.0001 1.0001 0 0 0 9.3125 37.375 C 8.6539341 36.541517 8.0496535 35.67667 7.53125 34.75 A 1.0001 1.0001 0 0 0 7.5 34.65625 C 7.070302 34.020002 6.4534435 33.756042 6 33.59375 C 5.5465565 33.431458 5.15625 33.375 5.15625 33.375 A 1.0001 1.0001 0 0 0 4.96875 33.375 C 4.888488 33.3807 4.897066 33.3776 4.84375 33.375 C 4.879879 33.33484 4.875055 33.33539 4.9375 33.28125 A 1.0001 1.0001 0 0 0 5.0625 33.125 C 5.0625 33.125 5.3223849 32.801318 5.53125 32.34375 C 5.7401151 31.886182 5.9982095 31.225093 5.78125 30.4375 C 5.4942826 29.419722 5.2795771 28.380702 5.15625 27.3125 A 1.0001 1.0001 0 0 0 5.125 27.25 C 4.9768684 26.490826 4.5149726 26.01308 4.15625 25.6875 C 3.7975274 25.36192 3.46875 25.15625 3.46875 25.15625 A 1.0001 1.0001 0 0 0 3.28125 25.0625 C 3.219733 25.04199 3.230805 25.05056 3.1875 25.03125 C 3.232955 25.01051 3.214088 24.99114 3.28125 24.96875 A 1.0001 1.0001 0 0 0 3.46875 24.875 C 3.46875 24.875 3.8286735 24.675556 4.1875 24.34375 C 4.5463265 24.011944 4.9955912 23.527426 5.125 22.75 A 1.0001 1.0001 0 0 0 5.15625 22.6875 C 5.2796241 21.615094 5.4925816 20.583354 5.78125 19.5625 A 1.0001 1.0001 0 0 0 5.78125 19.5 C 5.9577673 18.728554 5.7098035 18.103527 5.5 17.65625 C 5.2901965 17.208973 5.0625 16.90625 5.0625 16.90625 A 1.0001 1.0001 0 0 0 4.90625 16.75 C 4.839826 16.69241 4.84936 16.6978 4.8125 16.65625 C 4.865898 16.65355 4.857252 16.65055 4.9375 16.65625 A 1.0001 1.0001 0 0 0 5.1875 16.65625 C 5.1875 16.65625 5.5764909 16.57385 6.03125 16.40625 C 6.4860091 16.238648 7.0799665 16.000899 7.5 15.34375 A 1.0001 1.0001 0 0 0 7.53125 15.28125 C 8.0510072 14.348912 8.6494287 13.465082 9.3125 12.625 A 1.0001 1.0001 0 0 0 9.34375 12.59375 A 1.0001 1.0001 0 0 0 9.34375 12.5625 C 9.35292 12.54956 9.366186 12.54422 9.375 12.53125 A 1.0001 1.0001 0 0 0 9.53125 11.875 C 9.6426095 11.483116 9.8262032 11.054151 9.8125 10.75 C 9.7900193 10.251026 9.65625 9.875 9.65625 9.875 A 1.0001 1.0001 0 0 0 9.59375 9.6875 C 9.559104 9.618209 9.580384 9.611814 9.5625 9.5625 C 9.607313 9.579585 9.596806 9.56386 9.65625 9.59375 A 1.0001 1.0001 0 0 0 9.875 9.6875 C 9.875 9.6875 10.270903 9.7953808 10.78125 9.8125 C 11.071265 9.82223 11.475241 9.5996074 11.84375 9.5 C 11.87376 9.49189 11.90729 9.50946 11.9375 9.5 A 1.0001 1.0001 0 0 0 12.59375 9.3125 A 1.0001 1.0001 0 0 0 12.625 9.3125 C 12.63633 9.30358 12.64491 9.29015 12.65625 9.28125 C 13.470748 8.6422529 14.349272 8.0666457 15.25 7.5625 A 1.0001 1.0001 0 0 0 15.28125 7.53125 C 15.961661 7.1132566 16.236845 6.4993946 16.40625 6.03125 C 16.575655 5.5631054 16.625 5.15625 16.625 5.15625 A 1.0001 1.0001 0 0 0 16.625 4.9375 C 16.6208 4.877797 16.624099 4.88875 16.625 4.84375 C 16.66264 4.878447 16.6702 4.85025 16.71875 4.90625 A 1.0001 1.0001 0 0 0 16.875 5.0625 C 16.875 5.0625 17.222595 5.3201203 17.6875 5.53125 C 17.949987 5.6504545 18.405762 5.606545 18.78125 5.65625 A 1.0001 1.0001 0 0 0 19.59375 5.75 C 19.60365 5.74722 19.61512 5.75277 19.625 5.75 C 20.62009 5.4712766 21.613403 5.2774457 22.65625 5.15625 A 1.0001 1.0001 0 0 0 23.34375 4.75 C 23.37007 4.735007 23.38092 4.703142 23.40625 4.6875 C 23.713349 4.4978892 24.126482 4.3909521 24.3125 4.1875 C 24.649729 3.8186664 24.875 3.4375 24.875 3.4375 A 1.0001 1.0001 0 0 0 24.9375 3.25 C 24.96786 3.1589196 24.974424 3.176168 25 3.125 z M 25 7 C 20.391234 7 15.791825 8.7706746 12.28125 12.28125 A 1.0001 1.0001 0 1 0 13.6875 13.6875 C 19.944349 7.4306508 30.055651 7.4306508 36.3125 13.6875 C 42.569349 19.944349 42.569349 30.055651 36.3125 36.3125 A 1.0001 1.0001 0 1 0 37.71875 37.71875 C 44.739901 30.697599 44.739901 19.302401 37.71875 12.28125 C 34.208175 8.7706746 29.608766 7 25 7 z M 8.4375 19.59375 A 1.0001 1.0001 0 0 0 7.625 20.34375 C 6.0265795 26.344707 7.577612 33.015112 12.28125 37.71875 C 16.984888 42.422388 23.655293 43.97342 29.65625 42.375 A 1.0045064 1.0045064 0 1 0 29.125 40.4375 C 23.787957 41.85908 17.877862 40.502862 13.6875 36.3125 C 9.4971383 32.122138 8.1409205 26.212043 9.5625 20.875 A 1.0001 1.0001 0 0 0 8.4375 19.59375 z M 13.6875 20.46875 C 13.5495 20.46875 13.4375 20.58075 13.4375 20.71875 L 13.4375 29.28125 C 13.4375 29.41925 13.5495 29.53125 13.6875 29.53125 L 15.34375 29.53125 C 16.21375 29.53125 16.87025 29.29675 17.28125 28.84375 C 17.68725 28.39775 17.875 27.7495 17.875 26.9375 L 17.875 26.46875 C 17.875 25.98375 17.80925 25.58425 17.65625 25.28125 C 17.55625 25.08325 17.42 24.91825 17.25 24.78125 C 17.274 24.76125 17.2905 24.73875 17.3125 24.71875 C 17.4355 24.61075 17.54 24.48675 17.625 24.34375 C 17.711 24.19975 17.7715 24.02775 17.8125 23.84375 C 17.8515 23.66375 17.875 23.4335 17.875 23.1875 L 17.875 22.875 C 17.875 22.572 17.832 22.281 17.75 22 C 17.664 21.705 17.54275 21.44475 17.34375 21.21875 C 17.14475 20.99175 16.8715 20.8215 16.5625 20.6875 C 16.2555 20.5545 15.89275 20.46875 15.46875 20.46875 L 13.6875 20.46875 z M 19.96875 20.46875 C 19.83075 20.46875 19.71875 20.58075 19.71875 20.71875 L 19.71875 29.28125 C 19.71875 29.41925 19.83075 29.53125 19.96875 29.53125 L 23.625 29.53125 C 23.763 29.53125 23.875 29.41925 23.875 29.28125 L 23.875 28.0625 C 23.875 27.9245 23.763 27.8125 23.625 27.8125 L 21.46875 27.8125 L 21.46875 25.78125 L 23.3125 25.78125 C 23.4505 25.78125 23.5625 25.66925 23.5625 25.53125 L 23.5625 24.375 C 23.5625 24.237 23.4505 24.125 23.3125 24.125 L 21.46875 24.125 L 21.46875 22.125 L 23.625 22.125 C 23.763 22.125 23.875 22.013 23.875 21.875 L 23.875 20.71875 C 23.875 20.58075 23.762 20.46875 23.625 20.46875 L 19.96875 20.46875 z M 26.09375 20.46875 C 25.95575 20.46875 25.84375 20.58075 25.84375 20.71875 L 25.84375 29.28125 C 25.84375 29.41925 25.95575 29.53125 26.09375 29.53125 L 29.75 29.53125 C 29.888 29.53125 30 29.41925 30 29.28125 L 30 28.0625 C 30 27.9245 29.888 27.8125 29.75 27.8125 L 27.5625 27.8125 L 27.5625 25.78125 L 29.4375 25.78125 C 29.5755 25.78125 29.6875 25.66925 29.6875 25.53125 L 29.6875 24.375 C 29.6875 24.237 29.5755 24.125 29.4375 24.125 L 27.5625 24.125 L 27.5625 22.125 L 29.75 22.125 C 29.888 22.125 30 22.013 30 21.875 L 30 20.71875 C 30 20.58075 29.887 20.46875 29.75 20.46875 L 26.09375 20.46875 z M 31.9375 20.46875 C 31.7995 20.46875 31.6875 20.58075 31.6875 20.71875 L 31.6875 29.28125 C 31.6875 29.41925 31.7995 29.53125 31.9375 29.53125 L 33.15625 29.53125 C 33.29425 29.53125 33.40625 29.41925 33.40625 29.28125 L 33.40625 25.875 L 33.71875 25.875 L 34.78125 29.34375 C 34.81325 29.44775 34.92225 29.53125 35.03125 29.53125 L 36.3125 29.53125 C 36.3925 29.53125 36.48425 29.47125 36.53125 29.40625 C 36.57825 29.34125 36.5875 29.2635 36.5625 29.1875 L 35.3125 25.46875 C 35.6595 25.23975 35.9115 24.971 36.0625 24.625 C 36.2325 24.239 36.3125 23.779 36.3125 23.25 C 36.3125 20.971 35.00525 20.46875 33.90625 20.46875 L 31.9375 20.46875 z M 15.15625 22.125 L 15.40625 22.125 C 15.63125 22.125 15.9315 22.1515 16.0625 22.3125 C 16.1805 22.4585 16.21875 22.70725 16.21875 23.03125 C 16.21875 23.37025 16.1725 23.62025 16.0625 23.78125 C 15.9505 23.94425 15.6575 23.96875 15.4375 23.96875 L 15.15625 23.96875 L 15.15625 22.125 z M 33.40625 22.125 L 33.78125 22.125 C 33.97025 22.125 34.145 22.1445 34.25 22.1875 C 34.339 22.2245 34.3885 22.3 34.4375 22.375 C 34.4935 22.458 34.5435 22.5615 34.5625 22.6875 C 34.5835 22.8425 34.59375 23.01575 34.59375 23.21875 C 34.59375 23.42075 34.5835 23.598 34.5625 23.75 C 34.5425 23.881 34.4885 23.9785 34.4375 24.0625 C 34.3965 24.1305 34.334 24.17875 34.25 24.21875 C 34.158 24.26175 34.01975 24.28125 33.84375 24.28125 L 33.40625 24.28125 L 33.40625 22.125 z M 15.15625 25.5625 L 15.4375 25.5625 C 15.6255 25.5625 15.772 25.582 15.875 25.625 C 15.968 25.663 16.04475 25.71225 16.09375 25.78125 C 16.14675 25.85625 16.1705 25.97275 16.1875 26.09375 C 16.2095 26.23875 16.21875 26.38975 16.21875 26.59375 C 16.21875 26.79375 16.23275 26.98825 16.21875 27.15625 C 16.20575 27.29725 16.14975 27.43425 16.09375 27.53125 C 16.04675 27.61525 16.00325 27.66875 15.90625 27.71875 C 15.80225 27.77175 15.6445 27.8125 15.4375 27.8125 L 15.15625 27.8125 L 15.15625 25.5625 z" overflow="visible" font-family="Sans"/>
</svg>
